# xmcd
#
# Track frame offsets:
#	150
#	12839
#	31135
#	44267
#	58817
#	69320
#	81226
#	97477
#	114873
#	125140
#	139144
#	154120
#	164043
#	172241
#	184234
#	199162
#	215066
#	225280
#	240359
#	253705
#
# Disc length: 3662 seconds
#
# Revision: 1
# Processed by: cddbd v1.5.2PL0 Copyright (c) Steve Scherf et al.
# Submitted via: audiograbber 1.83.01
#
DISCID=220e4c14
DTITLE=Various Artist - Schaurige Moriaten - CD2
DYEAR=2008
DGENRE=Folk
TTITLE0=Emma und Orje - Eduard und Kunigunde  
TTITLE1=Erni Mangold - Kein Haimatland, kein Mutterland 
TTITLE2=Erni Mangold - Leise tönt die Abendglocke 
TTITLE3=Die Globetrotters - Der alte Drehorgelmann und das Waisenkind 
TTITLE4=Die Bänkelsänger - Die holde Gärtnersfrau 
TTITLE5=Die Bänkelsänger - Holde Blum' der Männertreu 
TTITLE6=Ethel Reschke - Der Tod auf den Schienen 
TTITLE7=Die Küchenmädchen - Im grünen Wald, dort wo die Drossel singt 
TTITLE8=Karin Lukow - In Hamburg da bin ich gewesen 
TTITLE9=Die Küchenmädchen - Unter Erlen stand 'ne Mühle  
TTITLE10=Rudi Hofstetter - Mein Lied an die Mutter
TTITLE11=Wila Krautz - Von der Wanderschaft zurück
TTITLE12=Richard Germer - Zerdrück die Träne nicht 
TTITLE13=Erwin Linder - Mein Paradies
TTITLE14=Comedien Qaurtett - Das muntere Rehlein
TTITLE15=Berta Drews - Die Heldin Isabell 
TTITLE16=Heinz Reincke - Die Mädchen sind schlecht 
TTITLE17=Ethel Reschke - Der Wilddieb 
TTITLE18=Heidi Kabel and Richard Germer - Heinrich schlief bei seiner Neuverwählt
TTITLE18=en 
TTITLE19=Richard Germer - Sie war ein Mädchen voller Güte 
EXTD=60 ergreifende deutsche Lieder
EXTT0=
EXTT1=
EXTT2=
EXTT3=
EXTT4=
EXTT5=
EXTT6=
EXTT7=
EXTT8=
EXTT9=
EXTT10=
EXTT11=
EXTT12=
EXTT13=
EXTT14=
EXTT15=
EXTT16=
EXTT17=
EXTT18=
EXTT19=
PLAYORDER=
